<svg width="133" height="133" viewBox="0 0 133 133" fill="none" xmlns="http://www.w3.org/2000/svg">
<path d="M56.2926 128.438L57.9732 116.958L60.1336 117.274L58.4531 128.754L56.2926 128.438ZM52.7288 127.916L52.9792 126.205L62.228 127.559L61.9775 129.27L52.7288 127.916Z" fill="black"/>
<path d="M41.7876 122.32L48.7805 114.646L50.9027 115.581L42.2593 124.452L40.9028 123.854L41.7876 122.32ZM43.2233 112.199L42.2981 122.545L41.7706 124.237L40.4069 123.636L41.0938 111.261L43.2233 112.199ZM41.6244 116.205L42.3213 114.623L48.0171 117.131L47.3201 118.713L41.6244 116.205Z" fill="black"/>
<path d="M28.3059 116.426L35.1692 107.072L36.9361 108.368L30.0728 117.723L28.3059 116.426Z" fill="black"/>
<path d="M24.6588 99.3194L25.9237 98.152L29.8799 102.438L28.615 103.606L24.6588 99.3194ZM20.9052 109.822L29.4313 101.952L30.9176 103.563L22.3915 111.432L20.9052 109.822Z" fill="black"/>
<path d="M19.8779 93.0895L10.4407 95.1509L9.8891 94.028L11.6277 93.0851L21.3569 91.0578L21.9402 92.2451L19.8779 93.0895ZM12.1027 98.5339L19.6561 92.7102L21.6802 91.7158L22.3161 93.0104L13.0619 100.487L12.1027 98.5339ZM17.1502 87.6997L7.97414 90.13L7.01139 88.1703L18.5846 85.4146L19.2206 86.7092L17.1502 87.6997ZM9.62557 93.4916L17.0534 87.2678L18.9606 86.1799L19.5439 87.3672L11.9825 93.8253L10.1737 94.6074L9.62557 93.4916Z" fill="black"/>
<path d="M4.57869 78.1775L15.9349 75.7996L16.384 77.9445L5.02782 80.3224L4.57869 78.1775Z" fill="black"/>
<path d="M3.51958 60.9325L15.1213 61.0686L15.0955 63.2678L6.98977 68.1057L15.0377 68.2001L15.012 70.3914L3.41026 70.2553L3.43595 68.0641L11.5498 63.2103L3.49397 63.1158L3.51958 60.9325Z" fill="black"/>
<path d="M16.9256 52.5937L16.2158 54.9931L14.5698 54.4895L15.2751 52.1054C15.4664 51.4584 15.4843 50.8737 15.3286 50.3512C15.1678 49.8272 14.8506 49.3732 14.3769 48.9894C13.8981 48.604 13.2792 48.299 12.5202 48.0745L11.9471 47.9049C11.3612 47.7316 10.8253 47.6424 10.3393 47.6371C9.85338 47.6319 9.42064 47.7088 9.04114 47.868C8.66315 48.0221 8.3417 48.2567 8.07678 48.5717C7.81187 48.8866 7.61009 49.2785 7.47145 49.7471L6.73455 52.2382L5.07636 51.7477L5.81326 49.2566C6.03327 48.5129 6.35851 47.8722 6.78896 47.3348C7.22092 46.7922 7.73755 46.3661 8.33883 46.0564C8.93653 45.7402 9.59428 45.558 10.3121 45.51C11.0314 45.4568 11.7909 45.5486 12.5907 45.7851L13.1486 45.9502C13.9433 46.1852 14.6305 46.5215 15.2102 46.9589C15.7864 47.3897 16.2392 47.9004 16.5687 48.4909C16.8996 49.0763 17.098 49.7167 17.1638 50.4121C17.2295 51.1074 17.1502 51.8346 16.9256 52.5937ZM5.43803 50.5251L16.5639 53.8163L15.9423 55.9177L4.81641 52.6265L5.43803 50.5251Z" fill="black"/>
<path d="M20.882 35.0835L22.0406 33.2235C22.668 33.6832 23.1382 34.2295 23.4512 34.8626C23.7596 35.4928 23.8826 36.1796 23.8201 36.923C23.7576 37.6664 23.4763 38.4395 22.9764 39.2421C22.5916 39.8599 22.1365 40.3494 21.611 40.7106C21.0839 41.0645 20.5079 41.2909 19.883 41.3898C19.2564 41.4814 18.5992 41.4413 17.9113 41.2695C17.219 41.0948 16.5143 40.7842 15.7973 40.3376L15.0465 39.87C14.3296 39.4234 13.7415 38.9256 13.2823 38.3767C12.823 37.8278 12.5001 37.2511 12.3133 36.6466C12.1249 36.0347 12.0746 35.412 12.1627 34.7783C12.2535 34.1402 12.4913 33.5122 12.8761 32.8945C13.376 32.0918 13.9476 31.5059 14.5907 31.1366C15.2292 30.7645 15.9011 30.5853 16.6061 30.5988C17.3112 30.6124 18.017 30.7955 18.7237 31.148L17.5651 33.0081C17.1278 32.7858 16.7199 32.6569 16.3414 32.6214C15.9658 32.5815 15.615 32.6572 15.2893 32.8486C14.9618 33.0326 14.6534 33.3569 14.3641 33.8214C14.1394 34.1821 14.0091 34.5421 13.973 34.9015C13.9398 35.2563 14.0022 35.6081 14.1604 35.957C14.3141 36.3031 14.5636 36.6462 14.9087 36.9864C15.2493 37.3238 15.6812 37.6554 16.2043 37.9812L16.9686 38.4573C17.4691 38.769 17.9431 39.0079 18.3904 39.1739C18.8378 39.3399 19.2524 39.4229 19.6342 39.4229C20.016 39.4229 20.3633 39.3325 20.6761 39.1519C20.989 38.9712 21.2619 38.6937 21.4951 38.3194C21.7787 37.864 21.9369 37.4493 21.9696 37.0753C22.005 36.6969 21.9293 36.3462 21.7424 36.0232C21.5584 35.6958 21.2715 35.3825 20.882 35.0835Z" fill="black"/>
<path d="M30.8431 25.1719C30.6909 25.0087 30.5298 24.8866 30.3597 24.8055C30.1899 24.7169 29.9919 24.68 29.7659 24.6947C29.5401 24.7019 29.2655 24.7619 28.9421 24.8747C28.619 24.98 28.2261 25.143 27.7637 25.3637C27.2515 25.609 26.7519 25.8134 26.2651 25.977C25.7783 26.1405 25.3088 26.2407 24.8564 26.2776C24.408 26.3109 23.9869 26.2605 23.5931 26.1265C23.1957 25.9887 22.8303 25.7411 22.4969 25.3837C22.1708 25.0341 21.9474 24.6467 21.8269 24.2215C21.7102 23.7927 21.6938 23.3467 21.7775 22.8835C21.8577 22.4165 22.0317 21.9527 22.2995 21.4921C22.5712 21.028 22.9343 20.5839 23.3888 20.1599C24.0182 19.5729 24.6689 19.1801 25.3411 18.9817C26.0172 18.7797 26.6645 18.7571 27.283 18.9139C27.9015 19.0707 28.4391 19.3938 28.8957 19.8833L27.2991 21.3727C27.0526 21.1085 26.7789 20.928 26.4778 20.8311C26.1806 20.7305 25.865 20.7271 25.5309 20.8207C25.2008 20.9107 24.8667 21.1134 24.5288 21.4286C24.2025 21.733 23.9758 22.0353 23.8489 22.3353C23.7258 22.6317 23.6878 22.9142 23.7349 23.1827C23.7858 23.4476 23.9073 23.683 24.0994 23.8889C24.2443 24.0443 24.4117 24.1497 24.6014 24.2051C24.7876 24.2567 25.0052 24.268 25.2543 24.2391C25.4997 24.2063 25.7747 24.135 26.0792 24.0253C26.384 23.9081 26.7238 23.7583 27.0985 23.5759C27.6951 23.2809 28.2479 23.0557 28.757 22.9005C29.2699 22.7417 29.7444 22.6623 30.1804 22.6625C30.6203 22.6589 31.0254 22.7388 31.3956 22.902C31.7697 23.0616 32.118 23.3143 32.4405 23.66C32.7811 24.0252 33.0137 24.4185 33.1381 24.8401C33.2625 25.2616 33.2849 25.6984 33.2053 26.1505C33.1257 26.6025 32.9464 27.0567 32.6675 27.5131C32.3924 27.9659 32.0237 28.4079 31.5614 28.8391C31.1496 29.2232 30.691 29.5493 30.1855 29.8175C29.6803 30.078 29.1613 30.2498 28.6284 30.3328C28.0919 30.4119 27.5671 30.3711 27.054 30.2104C26.5372 30.0459 26.0632 29.7325 25.632 29.2702L27.2403 27.7699C27.4903 28.038 27.7468 28.2273 28.0099 28.3379C28.2732 28.4411 28.5406 28.4786 28.8122 28.4504C29.0841 28.4147 29.3542 28.3226 29.6224 28.1741C29.8907 28.0255 30.1511 27.8335 30.4036 27.598C30.7299 27.2936 30.9563 26.9988 31.0827 26.7138C31.2094 26.4213 31.2491 26.1445 31.2018 25.8835C31.1584 25.6189 31.0388 25.3817 30.8431 25.1719Z" fill="black"/>
<path d="M42.452 17.4982C42.3462 17.3018 42.2213 17.1427 42.0774 17.0211C41.9356 16.8923 41.7535 16.8064 41.5312 16.7632C41.3109 16.7128 41.0301 16.7012 40.6887 16.7282C40.3494 16.748 39.928 16.806 39.4247 16.9021C38.867 17.0094 38.3319 17.0803 37.8196 17.1149C37.3072 17.1494 36.8276 17.1272 36.3807 17.0481C35.9385 16.9664 35.544 16.8108 35.1971 16.5813C34.8477 16.3471 34.5571 16.0148 34.3254 15.5845C34.0986 15.1636 33.981 14.7322 33.9723 14.2903C33.9683 13.846 34.0656 13.4104 34.2642 12.9837C34.4602 12.5522 34.7462 12.1478 35.1222 11.7703C35.5028 11.3903 35.9668 11.053 36.514 10.7583C37.2717 10.3502 38.0009 10.1355 38.7014 10.1142C39.4066 10.0904 40.0385 10.2328 40.5969 10.5415C41.1554 10.8501 41.5933 11.2991 41.9107 11.8885L39.9883 12.9238C39.817 12.6058 39.5981 12.3617 39.3314 12.1915C39.0695 12.0188 38.7651 11.9353 38.4182 11.9411C38.076 11.9444 37.7015 12.0556 37.2946 12.2748C36.9017 12.4864 36.6058 12.7212 36.4068 12.9792C36.2125 13.2347 36.1041 13.4982 36.0814 13.7699C36.0635 14.039 36.1212 14.2975 36.2547 14.5454C36.3555 14.7325 36.4906 14.877 36.6601 14.9788C36.8271 15.0759 37.0347 15.1421 37.2829 15.1773C37.5287 15.2079 37.8128 15.2088 38.1352 15.18C38.4597 15.144 38.8263 15.0853 39.2351 15.0039C39.887 14.87 40.4789 14.7926 41.0107 14.7717C41.5472 14.7483 42.0263 14.7919 42.448 14.9027C42.8743 15.011 43.2459 15.191 43.5625 15.4429C43.8838 15.6922 44.1566 16.025 44.3808 16.4413C44.6176 16.8809 44.7427 17.3204 44.756 17.7598C44.7694 18.1991 44.6802 18.6273 44.4884 19.0443C44.2967 19.4613 44.008 19.8552 43.6223 20.2258C43.2413 20.5939 42.7725 20.9279 42.2159 21.2276C41.7201 21.4947 41.1937 21.6937 40.6367 21.8247C40.0819 21.9485 39.5363 21.9829 38.9998 21.9279C38.4608 21.8682 37.9635 21.6956 37.508 21.4099C37.0499 21.1196 36.671 20.6961 36.3713 20.1395L38.3077 19.0966C38.4815 19.4194 38.6815 19.6676 38.9079 19.8414C39.1364 20.008 39.3855 20.1121 39.6554 20.1538C39.9274 20.1883 40.212 20.1678 40.5092 20.0922C40.8064 20.0166 41.107 19.897 41.411 19.7332C41.8039 19.5216 42.0977 19.294 42.2923 19.0504C42.4891 18.7996 42.5978 18.542 42.6183 18.2775C42.6434 18.0106 42.588 17.7508 42.452 17.4982Z" fill="black"/>
<path d="M57.3579 14.7386C57.3111 14.4233 57.3793 14.1419 57.5628 13.8945C57.7462 13.647 58.0218 13.4959 58.3896 13.4412C58.7575 13.3866 59.0651 13.4509 59.3126 13.6344C59.5601 13.8178 59.7072 14.0671 59.7541 14.3824C59.8002 14.6925 59.7315 14.9712 59.5481 15.2187C59.3639 15.4609 59.0879 15.6093 58.7201 15.664C58.3522 15.7187 58.045 15.6569 57.7983 15.4788C57.5508 15.2954 57.404 15.0486 57.3579 14.7386Z" fill="black"/>
<path d="M79.7857 4.83325L77.4932 16.207L75.3528 15.7756L77.6453 4.40183L79.7857 4.83325ZM83.3166 5.54493L82.9749 7.24005L73.8118 5.39316L74.1535 3.69803L83.3166 5.54493Z" fill="black"/>
<path d="M93.9424 11.7189L86.5489 19.0076L84.4797 17.9608L93.5855 9.56468L94.9081 10.2338L93.9424 11.7189ZM91.9672 21.7487L93.4447 11.4671L94.0619 9.8057L95.3916 10.4784L94.0434 22.7991L91.9672 21.7487ZM93.7782 17.8335L92.9976 19.3765L87.4442 16.567L88.2248 15.024L93.7782 17.8335Z" fill="black"/>
<path d="M107.089 18.3253L99.7353 27.2994L98.0403 25.9104L105.394 16.9363L107.089 18.3253Z" fill="black"/>
<path d="M109.816 35.603L108.49 36.7011L104.769 32.209L106.095 31.111L109.816 35.603ZM114.126 25.3167L105.191 32.7184L103.793 31.0308L112.728 23.6291L114.126 25.3167Z" fill="black"/>
<path d="M114.257 42.0799L123.791 40.5264L124.281 41.6772L122.495 42.5258L112.671 44.0295L112.152 42.8127L114.257 42.0799ZM122.312 37.0593L114.458 42.4705L112.383 43.3552L111.818 42.0284L121.459 35.0582L122.312 37.0593ZM116.692 47.6079L125.985 45.6721L126.841 47.6806L115.137 49.8129L114.572 48.4862L116.692 47.6079ZM124.516 42.227L116.765 48.0444L114.803 49.0286L114.284 47.8118L122.18 41.7676L124.028 41.0835L124.516 42.227Z" fill="black"/>
<path d="M128.736 57.7891L117.269 59.556L116.935 57.3901L128.402 55.6233L128.736 57.7891Z" fill="black"/>
<path d="M128.871 75.0661L117.293 74.3094L117.436 72.1147L125.789 67.7175L117.758 67.1926L117.901 65.0059L129.479 65.7626L129.336 67.9493L120.974 72.3619L129.013 72.8874L128.871 75.0661Z" fill="black"/>
<path d="M115.037 82.6757L115.875 80.3177L117.491 80.9086L116.66 83.2516C116.434 83.8874 116.385 84.4703 116.512 85.0004C116.645 85.5322 116.937 86.0025 117.39 86.4112C117.847 86.8217 118.449 87.1593 119.195 87.4241L119.758 87.6241C120.334 87.8285 120.864 87.9463 121.349 87.9776C121.834 88.0088 122.27 87.9551 122.658 87.8165C123.043 87.6828 123.377 87.4658 123.658 87.1655C123.94 86.8651 124.162 86.4846 124.326 86.0241L125.195 83.576L126.824 84.1545L125.955 86.6026C125.696 87.3335 125.337 87.9558 124.878 88.4695C124.418 88.9882 123.879 89.386 123.262 89.6631C122.648 89.9469 121.982 90.0936 121.262 90.1031C120.541 90.1177 119.788 89.9855 119.002 89.7064L118.454 89.5118C117.673 89.2345 117.004 88.862 116.449 88.3942C115.897 87.9331 115.472 87.399 115.174 86.7916C114.875 86.1893 114.711 85.5393 114.683 84.8414C114.654 84.1435 114.773 83.4216 115.037 82.6757ZM126.398 85.356L115.464 81.4742L116.197 79.409L127.131 83.2909L126.398 85.356Z" fill="black"/>
<path d="M110.15 99.9489L108.893 101.744C108.291 101.252 107.851 100.681 107.572 100.032C107.298 99.3863 107.212 98.6939 107.314 97.9549C107.417 97.2158 107.739 96.459 108.281 95.6842C108.698 95.0879 109.179 94.6235 109.723 94.2909C110.268 93.9658 110.855 93.7705 111.485 93.7052C112.115 93.6472 112.77 93.7224 113.447 93.9308C114.129 94.1423 114.816 94.4902 115.508 94.9745L116.233 95.4817C116.925 95.966 117.486 96.4945 117.915 97.0672C118.344 97.6399 118.636 98.2331 118.79 98.8467C118.945 99.4677 118.962 100.092 118.84 100.72C118.715 101.353 118.444 101.967 118.027 102.563C117.485 103.338 116.883 103.893 116.221 104.227C115.563 104.564 114.883 104.707 114.179 104.656C113.476 104.605 112.781 104.384 112.094 103.994L113.351 102.199C113.776 102.444 114.176 102.595 114.552 102.651C114.925 102.711 115.279 102.654 115.615 102.48C115.952 102.314 116.277 102.006 116.591 101.558C116.834 101.21 116.984 100.857 117.039 100.5C117.091 100.148 117.048 99.7933 116.908 99.4364C116.773 99.0826 116.543 98.7266 116.216 98.3685C115.894 98.0133 115.481 97.6591 114.976 97.3058L114.238 96.7895C113.755 96.4514 113.294 96.1875 112.857 95.9977C112.419 95.808 112.009 95.703 111.628 95.6826C111.247 95.6621 110.895 95.7338 110.573 95.8975C110.251 96.0611 109.964 96.3236 109.711 96.6849C109.403 97.1245 109.223 97.5301 109.17 97.9018C109.115 98.2778 109.171 98.6321 109.341 98.9646C109.507 99.3014 109.777 99.6295 110.15 99.9489Z" fill="black"/>
<path d="M99.6724 109.313C99.8157 109.484 99.9701 109.615 100.136 109.705C100.3 109.803 100.496 109.85 100.723 109.847C100.948 109.852 101.226 109.807 101.555 109.712C101.883 109.624 102.284 109.482 102.758 109.287C103.282 109.069 103.792 108.892 104.287 108.754C104.782 108.617 105.256 108.542 105.71 108.53C106.159 108.52 106.577 108.593 106.963 108.748C107.353 108.907 107.704 109.174 108.018 109.548C108.325 109.915 108.527 110.314 108.625 110.745C108.718 111.179 108.711 111.626 108.603 112.084C108.498 112.546 108.299 112.999 108.007 113.445C107.711 113.894 107.324 114.318 106.848 114.717C106.188 115.27 105.517 115.627 104.835 115.789C104.149 115.955 103.502 115.943 102.893 115.753C102.283 115.563 101.764 115.212 101.334 114.699L103.008 113.297C103.24 113.574 103.504 113.769 103.799 113.882C104.091 113.998 104.406 114.018 104.744 113.943C105.079 113.87 105.423 113.686 105.777 113.389C106.12 113.103 106.362 112.813 106.505 112.52C106.644 112.231 106.697 111.951 106.664 111.68C106.627 111.413 106.519 111.171 106.338 110.955C106.201 110.792 106.04 110.678 105.853 110.613C105.67 110.551 105.454 110.528 105.203 110.544C104.956 110.564 104.678 110.62 104.368 110.713C104.058 110.814 103.71 110.945 103.326 111.107C102.715 111.37 102.151 111.565 101.634 111.693C101.113 111.824 100.635 111.878 100.2 111.855C99.7604 111.835 99.3602 111.733 98.9993 111.55C98.6343 111.371 98.3 111.1 97.9964 110.738C97.6758 110.355 97.4647 109.949 97.363 109.522C97.2613 109.094 97.2623 108.657 97.366 108.21C97.4697 107.763 97.673 107.319 97.976 106.878C98.2749 106.44 98.6667 106.019 99.1514 105.613C99.5832 105.251 100.059 104.95 100.578 104.71C101.096 104.476 101.624 104.333 102.16 104.278C102.7 104.228 103.222 104.297 103.726 104.485C104.233 104.677 104.69 105.015 105.095 105.5L103.409 106.912C103.174 106.631 102.928 106.428 102.671 106.303C102.414 106.186 102.149 106.135 101.876 106.148C101.602 106.169 101.328 106.247 101.052 106.381C100.776 106.515 100.506 106.693 100.241 106.914C99.899 107.201 99.6572 107.483 99.5157 107.761C99.3735 108.046 99.3191 108.32 99.3524 108.584C99.3816 108.85 99.4883 109.093 99.6724 109.313Z" fill="black"/>
<path d="M87.6697 116.355C87.7648 116.557 87.881 116.722 88.0182 116.851C88.1529 116.987 88.3301 117.083 88.5498 117.138C88.767 117.2 89.0468 117.227 89.3892 117.218C89.7291 117.216 90.1529 117.181 90.6607 117.112C91.2234 117.035 91.7614 116.993 92.2749 116.985C92.7884 116.978 93.2661 117.026 93.7081 117.129C94.1453 117.234 94.531 117.411 94.8651 117.659C95.2014 117.911 95.4738 118.259 95.6822 118.701C95.8861 119.133 95.9805 119.57 95.9655 120.012C95.9457 120.456 95.8253 120.886 95.6042 121.301C95.3853 121.721 95.078 122.11 94.6824 122.467C94.282 122.826 93.8006 123.138 93.2384 123.403C92.4599 123.77 91.7204 123.945 91.0197 123.929C90.3142 123.915 89.6909 123.739 89.1498 123.401C88.6086 123.063 88.1954 122.591 87.91 121.985L89.885 121.054C90.039 121.381 90.2446 121.637 90.5017 121.821C90.7541 122.007 91.0536 122.107 91.4002 122.12C91.7421 122.135 92.1221 122.044 92.5401 121.847C92.9438 121.656 93.2519 121.438 93.4643 121.191C93.672 120.946 93.7944 120.689 93.8316 120.419C93.8639 120.151 93.82 119.89 93.7 119.635C93.6094 119.443 93.4822 119.291 93.3184 119.181C93.1569 119.075 92.9531 118.997 92.7071 118.949C92.4633 118.905 92.1797 118.889 91.8562 118.901C91.5302 118.919 91.161 118.958 90.7485 119.018C90.0903 119.116 89.4951 119.162 88.963 119.155C88.426 119.149 87.9499 119.08 87.5348 118.947C87.1148 118.816 86.7534 118.616 86.4507 118.348C86.1432 118.082 85.8886 117.735 85.687 117.307C85.4741 116.855 85.3727 116.41 85.3829 115.97C85.3931 115.531 85.5051 115.108 85.7189 114.702C85.9326 114.296 86.242 113.918 86.647 113.568C87.0471 113.221 87.5331 112.913 88.105 112.643C88.6144 112.403 89.1506 112.233 89.7138 112.132C90.2745 112.038 90.8212 112.033 91.3539 112.116C91.889 112.205 92.3763 112.404 92.8159 112.713C93.2578 113.028 93.6135 113.471 93.883 114.043L91.8936 114.98C91.7373 114.649 91.5508 114.39 91.3341 114.205C91.1148 114.026 90.8716 113.909 90.6043 113.853C90.3346 113.804 90.0493 113.809 89.7484 113.868C89.4476 113.928 89.141 114.031 88.8287 114.179C88.425 114.369 88.1195 114.58 87.9121 114.813C87.7022 115.053 87.5799 115.305 87.5453 115.568C87.5059 115.833 87.5474 116.095 87.6697 116.355Z" fill="black"/>
<path d="M72.6374 118.313C72.6674 118.63 72.5841 118.907 72.3877 119.145C72.1913 119.382 71.908 119.518 71.5378 119.553C71.1675 119.588 70.8638 119.507 70.6265 119.311C70.3892 119.114 70.2556 118.858 70.2256 118.54C70.1962 118.228 70.2797 117.953 70.4761 117.716C70.673 117.484 70.9566 117.351 71.3268 117.316C71.697 117.281 72.0005 117.359 72.2373 117.55C72.4746 117.746 72.608 118.001 72.6374 118.313Z" fill="black"/>
</svg>
