<svg width="32768" height="8651" viewBox="0 0 32768 8651" fill="none" xmlns="http://www.w3.org/2000/svg">
<path fill-rule="evenodd" clip-rule="evenodd" d="M1992.23 271.47H794.589V1666.52H0V8641.8L1704.34 8641.8H3638.99H4491.16H4836.63V2782.57H3638.99V5319.03H2786.82V1666.52H1992.23V271.47ZM25472.9 651.94H21983.7V8641.8H25472.9V651.94ZM6310.66 778.763H5113.01V8641.8H6310.66V778.763ZM6587.04 3086.95H7784.68V8641.8H6587.04V3086.95ZM8406.53 3086.95H10905.5V2046.99H12690.4V778.763H13865V2046.99H15189.3V8641.8H13865L12690.4 8641.8H8406.53V3086.95ZM18724.7 3721.06H16939.7V8641.8H18724.7V3721.06ZM19346.5 2326H21131.5V8641.8H19346.5V2326Z" fill="#EA580C"/>
<path fill-rule="evenodd" clip-rule="evenodd" d="M9999.15 0H8596.55V8641.8H9999.15V0ZM2443.23 1628.82H4434.01V8641.8H2443.23V1628.82ZM4841.22 3212.4H6243.81V8641.8H4841.22V3212.4ZM16016.7 4343.52H17012.1V8641.8H11763.7V4343.52H14161.7V1628.82H16016.7V4343.52ZM19636.3 4343.52H17645.6V8641.8H19636.3V4343.52ZM22848.7 2624.21H24839.5V8641.8H22848.7V2624.21Z" fill="#C2410C"/>
<path fill-rule="evenodd" clip-rule="evenodd" d="M12397.1 3710.09H8234.59V8641.8H12397.1V3710.09ZM3167.15 5497.42H7329.69V8641.8H3167.15V5497.42ZM407.205 6093.2H1900.29V8641.8H407.205V6093.2ZM20360.3 5497.42H24522.8V8641.8H20360.3V5497.42ZM19455.4 6821.37H15292.8V8641.8H19455.4V6821.37Z" fill="#9A3412"/>
<path fill-rule="evenodd" clip-rule="evenodd" d="M9287.28 271.47H8089.64V1666.52H7295.05V8641.8L8999.39 8641.8H10934H11786.2H12131.7V2782.57H10934V5319.03H10081.9V1666.52H9287.28V271.47ZM32768 651.94H29278.7V8641.8H32768V651.94ZM13605.7 778.763H12408.1V8641.8H13605.7V778.763ZM13882.1 3086.95H15079.7V8641.8H13882.1V3086.95ZM15701.6 3086.95H18200.5V2046.99H19985.5V778.763H21160.1V2046.99H22484.4V8641.8H21160.1L19985.5 8641.8H15701.6V3086.95ZM26019.7 3721.06H24234.8V8641.8H26019.7V3721.06ZM26641.6 2326H28426.5V8641.8H26641.6V2326Z" fill="#EA580C"/>
<path fill-rule="evenodd" clip-rule="evenodd" d="M17294.2 0H15891.6V8641.8H17294.2V0ZM9738.28 1628.82H11729.1V8641.8H9738.28V1628.82ZM12136.3 3212.4H13538.9V8641.8H12136.3V3212.4ZM23311.8 4343.52H24307.2V8641.8H19058.8V4343.52H21456.7V1628.82H23311.8V4343.52ZM26931.4 4343.52H24940.6V8641.8H26931.4V4343.52ZM30143.8 2624.21H32134.6V8641.8H30143.8V2624.21Z" fill="#C2410C"/>
<path fill-rule="evenodd" clip-rule="evenodd" d="M19692.2 3710.09H15529.6V8641.8H19692.2V3710.09ZM10462.2 5497.42H14624.7V8641.8H10462.2V5497.42ZM7702.26 6093.2H9195.34V8641.8H7702.26V6093.2ZM27655.3 5497.42H31817.9V8641.8H27655.3V5497.42ZM26750.4 6821.37H22587.9V8641.8H26750.4V6821.37Z" fill="#9A3412"/>
<path fill-rule="evenodd" clip-rule="evenodd" d="M907.941 3278.85C630.703 3278.85 405.957 3503.6 405.957 3780.83V4476.74H1409.92V3780.83C1409.92 3503.6 1185.18 3278.85 907.941 3278.85ZM1815.88 8641.8V4476.74H0V8641.8H1815.88Z" fill="#1C1919"/>
<path fill-rule="evenodd" clip-rule="evenodd" d="M855.872 4965.42H443.909V5398.93H855.872V4965.42ZM1370.82 4965.42H958.861V5398.93H1370.82V4965.42ZM958.861 5507.3H1370.82V5940.81H958.861V5507.3ZM855.872 5507.3H443.909V5940.81H855.872V5507.3ZM855.872 6129.84H443.909V6563.35H855.872V6129.84ZM1370.82 6129.84H958.861V6563.35H1370.82V6129.84ZM958.861 6671.72H1370.82V7105.23H958.861V6671.72ZM855.872 6671.72H443.909V7105.23H855.872V6671.72ZM443.909 7294.26H855.872V7727.76H443.909V7294.26ZM958.861 7294.26H1370.82V7727.76H958.861V7294.26ZM1370.82 7836.14H958.861V8269.65H1370.82V7836.14ZM443.909 7836.14H855.872V8269.65H443.909V7836.14Z" fill="white"/>
<path fill-rule="evenodd" clip-rule="evenodd" d="M5643.36 1291.04L5088.3 271.47L4533.24 1291.04H4437.99V2622.6H4142.66V4421.45H3492.35V8641.79H6684.25V4421.45H6032.45V2622.6H5738.61V1291.04H5643.36Z" fill="black"/>
<path fill-rule="evenodd" clip-rule="evenodd" d="M5006.1 2801.81H4342.53V3410.72H5006.1V2801.81ZM5835.56 2801.81H5171.99V3410.72H5835.56V2801.81ZM5171.99 3562.95H5835.56V4171.86H5171.99V3562.95ZM5006.1 3562.95H4342.53V4171.86H5006.1V3562.95Z" fill="white"/>
<path fill-rule="evenodd" clip-rule="evenodd" d="M3722.05 7935.52V7327.43H4936.49V7935.52H3722.05ZM3722.05 7175.41L3722.05 6567.31H4936.49V7175.41H3722.05ZM5240.1 6567.31V7175.41H6454.55L6454.55 6567.31H5240.1ZM5240.1 7935.52V7327.43L6454.55 7327.43V7935.52H5240.1ZM3722.05 6428.22V5820.13H4936.49V6428.22H3722.05ZM3722.05 5668.1V5060.01H4936.49V5668.1H3722.05ZM5240.1 5060.01V5668.1H6454.55V5060.01H5240.1ZM5240.1 6428.22L5240.1 5820.13H6454.55V6428.22H5240.1Z" fill="white"/>
<path fill-rule="evenodd" clip-rule="evenodd" d="M21020.2 3202.61L20695 2448.18L20369.8 3202.61H20314V4187.89H20141V5518.96H19760.1V8641.8H21629.9V5518.96H21248.1V4187.89H21076V3202.61H21020.2Z" fill="black"/>
<path fill-rule="evenodd" clip-rule="evenodd" d="M20646.8 4320.51H20258.1V4771.07H20646.8V4320.51ZM21132.8 4320.51H20744V4771.07H21132.8V4320.51ZM20744 4883.71H21132.8V5334.28H20744V4883.71ZM20646.8 4883.71H20258.1V5334.28H20646.8V4883.71Z" fill="white"/>
<path fill-rule="evenodd" clip-rule="evenodd" d="M19894.6 7003.86V6553.9H20606.1V7003.86H19894.6ZM19894.6 6441.41V5991.45H20606.1V6441.41H19894.6ZM20783.9 5991.45V6441.41H21495.4V5991.45L20783.9 5991.45ZM20783.9 7003.86V6553.9H21495.4V7003.86H20783.9ZM19894.6 8119.19V7669.24H20606.1V8119.19H19894.6ZM19894.6 7556.75V7106.79H20606.1V7556.75H19894.6ZM20783.9 7106.79V7556.75H21495.4V7106.79H20783.9ZM20783.9 8119.19V7669.24L21495.4 7669.24V8119.19H20783.9Z" fill="white"/>
<path fill-rule="evenodd" clip-rule="evenodd" d="M12838.3 2448.38H14420.4V6015.23L14507 6015.23V3388.74H16089L16089 4172.92H17671V6015.23V8641.72H9587.7V6015.23V4172.92H11169.7L11169.7 3388.74H12751.7V6015.23L12838.3 6015.23V2448.38Z" fill="black"/>
<path fill-rule="evenodd" clip-rule="evenodd" d="M13560.6 3061.55H13005.4V3595.21H13560.6V3061.55ZM14254.5 3061.55H13699.4V3595.21H14254.5V3061.55ZM13699.4 3728.63H14254.5V4262.29H13699.4V3728.63ZM13560.6 3728.63H13005.4V4262.29H13560.6V3728.63Z" fill="white"/>
<path fill-rule="evenodd" clip-rule="evenodd" d="M11269.7 6308.89H12268V7239.7H11269.7V6308.89ZM12517.6 6308.89H13515.8V7239.7H12517.6V6308.89ZM13515.8 7472.39H12517.6V8403.2H13515.8V7472.39ZM11269.7 7472.39H12268V8403.2H11269.7V7472.39ZM13744.2 6308.89H14742.4V7239.7H13744.2V6308.89ZM14992 6308.89H15990.2V7239.7H14992V6308.89ZM15990.2 7472.39H14992V8403.2H15990.2V7472.39ZM13744.2 7472.39H14742.4V8403.2H13744.2V7472.39Z" fill="white"/>
<path fill-rule="evenodd" clip-rule="evenodd" d="M25385.9 5921.61L24622.2 4330.09L23858.4 5921.61H23637V8650.99H28927.1V5921.61H28743L27979.3 4330.09L27215.5 5921.61H26934.8L26171.1 4330.09L25407.3 5921.61H25385.9Z" fill="black"/>
<path fill-rule="evenodd" clip-rule="evenodd" d="M24419 6706.36H25207V7433.32H24419V6706.36ZM25404 6706.36H26191.9V7433.32H25404V6706.36ZM26191.9 7615.07H25404V8342.03H26191.9V7615.07ZM24419 7615.07H25207V8342.03H24419V7615.07ZM26372.2 6706.36H27160.1V7433.32H26372.2V6706.36ZM27357.1 6706.36H28145.1V7433.32H27357.1V6706.36ZM28145.1 7615.07H27357.1V8342.03H28145.1V7615.07ZM26372.2 7615.07H27160.1V8342.03H26372.2V7615.07Z" fill="white"/>
<path fill-rule="evenodd" clip-rule="evenodd" d="M32021.5 2801.66C31609.2 2801.66 31274.9 3135.89 31274.9 3548.2V4677.23V5158.06V8568.98H32768V5158.06V4677.23V3548.2C32768 3135.89 32433.8 2801.66 32021.5 2801.66Z" fill="black"/>
<path fill-rule="evenodd" clip-rule="evenodd" d="M31716.8 5991.33V5568.7H31987.9V5991.33H31716.8ZM31716.8 5463.04V5040.4H31987.9V5463.04H31716.8ZM32055.7 5040.4V5463.04H32326.9V5040.4H32055.7ZM32055.7 5991.33V5568.7H32326.9V5991.33H32055.7ZM31716.8 4943.73V4521.09H31987.9V4943.73H31716.8ZM31716.8 4415.43V3992.8H31987.9V4415.43H31716.8ZM32055.7 3992.8V4415.43H32326.9V3992.8L32055.7 3992.8ZM32055.7 4943.73V4521.09H32326.9V4943.73H32055.7Z" fill="white"/>
</svg>
