<svg width="32768" height="11117" viewBox="0 0 32768 11117" fill="none" xmlns="http://www.w3.org/2000/svg">
<path fill-rule="evenodd" clip-rule="evenodd" d="M2562.78 349.215H1022.15V2143.79H0V11116.7L2192.43 11116.7H4681.14H5777.36H6221.77V3579.45H4681.14V6842.32H3584.93V2143.79H2562.78V349.215ZM32768 838.645H28279.4V11116.7H32768V838.645ZM8117.93 1001.79H6577.3V11116.7H8117.93V1001.79ZM8473.46 3971H10014.1V11116.7H8473.46V3971ZM10814 3971H14028.6V2633.22H16324.7V1001.79H17835.7V2633.22H19539.3V11116.7H17835.7L16324.7 11116.7H10814V3971ZM24087.1 4786.71H21791V11116.7H24087.1V4786.71ZM24887.1 2992.14H27183.2V11116.7H24887.1V2992.14Z" fill="#D9D9D9"/>
<path fill-rule="evenodd" clip-rule="evenodd" d="M12862.7 0H11058.5V11116.7H12862.7V0ZM3142.93 2095.29H5703.84V11116.7H3142.93V2095.29ZM6227.67 4132.38H8031.94V11116.7H6227.67V4132.38ZM20603.7 5587.44H21884.1V11116.7H15132.6V5587.44H18217.4V2095.29H20603.7V5587.44ZM25259.9 5587.44H22699V11116.7H25259.9V5587.44ZM29392.3 3375.74H31953.2V11116.7H29392.3V3375.74Z" fill="#878787"/>
<path fill-rule="evenodd" clip-rule="evenodd" d="M15947.5 4772.6H10592.9V11116.7H15947.5V4772.6ZM4074.17 7071.8H9428.8V11116.7H4074.17V7071.8ZM523.822 7838.19H2444.5V11116.7H523.822V7838.19ZM26191.1 7071.8H31545.7V11116.7H26191.1V7071.8ZM25027.1 8774.9H19672.4V11116.7H25027.1V8774.9Z" fill="#515151"/>
<path fill-rule="evenodd" clip-rule="evenodd" d="M1283.52 4306.98C925.753 4306.98 635.728 4597.01 635.728 4954.77V5828.03H1931.31V4954.77C1931.31 4597.01 1641.28 4306.98 1283.52 4306.98ZM2455.18 11116.7V5828.03H111.858V11116.7H2455.18Z" fill="#1C1919"/>
<path fill-rule="evenodd" clip-rule="evenodd" d="M1216.32 6448.54H684.703V6998.99H1216.32V6448.54ZM1880.85 6448.54H1349.23V6998.99H1880.85V6448.54ZM1349.23 7136.6H1880.85V7687.05H1349.23V7136.6ZM1216.32 7136.6H684.703V7687.05H1216.32V7136.6ZM1216.32 7927.07H684.703V8477.52H1216.32V7927.07ZM1880.85 7927.07H1349.23V8477.52H1880.85V7927.07ZM1349.23 8615.14H1880.85V9165.59H1349.23V8615.14ZM1216.32 8615.14H684.703V9165.59H1216.32V8615.14ZM684.703 9405.61H1216.32V9956.06H684.703V9405.61ZM1349.23 9405.61H1880.85V9956.06H1349.23V9405.61ZM1880.85 10093.7H1349.23V10644.1H1880.85V10093.7ZM684.703 10093.7H1216.32V10644.1H684.703V10093.7Z" fill="#D9D9D9"/>
<path fill-rule="evenodd" clip-rule="evenodd" d="M24236.7 7605.65L23254.2 5558.34L22271.8 7605.65H21986.9V11116.7H28792V7605.65H28555.2L27572.7 5558.34L26590.2 7605.65H26229.2L25246.7 5558.34L24264.2 7605.65H24236.7Z" fill="black"/>
<path fill-rule="evenodd" clip-rule="evenodd" d="M22992.9 8615.13H24006.5V9550.29H22992.9V8615.13ZM24259.9 8615.13H25273.5V9550.29H24259.9V8615.13ZM25273.5 9784.08H24259.9V10719.2H25273.5V9784.08ZM22992.9 9784.08H24006.5V10719.2H22992.9V9784.08ZM25505.4 8615.13H26519V9550.29H25505.4V8615.13ZM26772.4 8615.13H27786V9550.29H26772.4V8615.13ZM27786 9784.08H26772.4V10719.2H27786V9784.08ZM25505.4 9784.08H26519V10719.2H25505.4V9784.08Z" fill="#D9D9D9"/>
<path fill-rule="evenodd" clip-rule="evenodd" d="M15995.9 4007.79H17581.4V8101.86L20839.2 8101.86V11116.6H12738.2V8101.86L15995.9 8101.86V4007.79ZM19253.7 5087.14H17668.2V8101.86H19253.7V5087.14ZM14323.7 5987.24H12738.2V8101.86H14323.7H15909.1V5087.14H14323.7L14323.7 5987.24ZM19253.7 5987.24H20839.2V8101.86H19253.7V5987.24Z" fill="black"/>
<path fill-rule="evenodd" clip-rule="evenodd" d="M16719.8 4711.59H16163.4V5324.13H16719.8V4711.59ZM17415.2 4711.59H16858.9V5324.13H17415.2V4711.59ZM16858.9 5477.26H17415.2V6089.81H16858.9V5477.26ZM16719.8 5477.26H16163.4V6089.81H16719.8V5477.26Z" fill="#D9D9D9"/>
<path fill-rule="evenodd" clip-rule="evenodd" d="M14423.9 8438.93H15424.3V9507.31H14423.9V8438.93ZM15674.4 8438.93H16674.9V9507.31H15674.4V8438.93ZM16674.9 9774.41H15674.4V10842.8H16674.9V9774.41ZM14423.9 9774.41H15424.3V10842.8H14423.9V9774.41ZM16903.7 8438.93H17904.2V9507.31H16903.7V8438.93ZM18154.3 8438.93H19154.7V9507.31H18154.3V8438.93ZM19154.7 9774.41H18154.3V10842.8H19154.7V9774.41ZM16903.7 9774.41H17904.2V10842.8H16903.7V9774.41Z" fill="#D9D9D9"/>
<path fill-rule="evenodd" clip-rule="evenodd" d="M31767.6 3697.68C31237.3 3697.68 30807.3 4127.63 30807.3 4658.02V6110.39V6728.92V11116.7H32728V6728.92V6110.39V4658.02C32728 4127.64 32298 3697.68 31767.6 3697.68Z" fill="black"/>
<path fill-rule="evenodd" clip-rule="evenodd" d="M31375.7 7800.82V7257.15H31724.5V7800.82H31375.7ZM31375.7 7121.23V6577.56H31724.5V7121.23H31375.7ZM31811.7 6577.56V7121.23H32160.5V6577.56H31811.7ZM31811.7 7800.82V7257.15H32160.5V7800.82H31811.7ZM31375.7 6453.2V5909.53H31724.5V6453.2H31375.7ZM31375.7 5773.61V5229.94H31724.5V5773.61H31375.7ZM31811.7 5229.94V5773.61H32160.5V5229.94H31811.7ZM31811.7 6453.2V5909.53L32160.5 5909.53V6453.2H31811.7Z" fill="#D9D9D9"/>
<path fill-rule="evenodd" clip-rule="evenodd" d="M7971.21 2427.47L7339.42 1222.25L6707.64 2427.47H6599.22V4001.48H6263.07V6127.88H5522.87V11116.7H9155.98V6127.88H8414.08V4001.48H8079.63V2427.47H7971.21Z" fill="black"/>
<path fill-rule="evenodd" clip-rule="evenodd" d="M7245.86 4213.33H6490.57V4933.12H7245.86V4213.33ZM8189.98 4213.33H7434.68V4933.12H8189.98V4213.33ZM7434.68 5113.06H8189.98V5832.85H7434.68V5113.06ZM7245.86 5113.06H6490.57V5832.85H7245.86V5113.06Z" fill="#D9D9D9"/>
<path fill-rule="evenodd" clip-rule="evenodd" d="M5784.32 10281.8V9562.99H7166.64V10281.8H5784.32ZM5784.32 9383.28V8664.47H7166.64V9383.28H5784.32ZM7512.21 8664.47V9383.28H8894.53V8664.47H7512.21ZM7512.21 10281.8L7512.21 9562.99H8894.53V10281.8H7512.21ZM5784.32 8500.05V7781.23H7166.64V8500.05H5784.32ZM5784.32 7601.52L5784.32 6882.71H7166.64V7601.52H5784.32ZM7512.21 6882.71V7601.52H8894.53V6882.71H7512.21ZM7512.21 8500.05V7781.23H8894.53V8500.05H7512.21Z" fill="#D9D9D9"/>
</svg>
