<svg width="32768" height="11117" viewBox="0 0 32768 11117" fill="none" xmlns="http://www.w3.org/2000/svg">
<path fill-rule="evenodd" clip-rule="evenodd" d="M2562.78 349.215H1022.15V2143.79H0V11116.7L2192.43 11116.7H4681.14H5777.36H6221.77V3579.45H4681.14V6842.32H3584.93V2143.79H2562.78V349.215ZM32768 838.645H28279.4V11116.7H32768V838.645ZM8117.93 1001.79H6577.3V11116.7H8117.93V1001.79ZM8473.46 3971H10014.1V11116.7H8473.46V3971ZM10814 3971H14028.6V2633.22H16324.7V1001.79H17835.7V2633.22H19539.3V11116.7H17835.7L16324.7 11116.7H10814V3971ZM24087.1 4786.71H21791V11116.7H24087.1V4786.71ZM24887.1 2992.14H27183.2V11116.7H24887.1V2992.14Z" fill="#D9D9D9"/>
<path fill-rule="evenodd" clip-rule="evenodd" d="M12862.7 0H11058.5V11116.7H12862.7V0ZM3142.93 2095.29H5703.84V11116.7H3142.93V2095.29ZM6227.67 4132.38H8031.94V11116.7H6227.67V4132.38ZM20603.7 5587.44H21884.1V11116.7H15132.6V5587.44H18217.4V2095.29H20603.7V5587.44ZM25259.9 5587.44H22699V11116.7H25259.9V5587.44ZM29392.3 3375.74H31953.2V11116.7H29392.3V3375.74Z" fill="#878787"/>
<path fill-rule="evenodd" clip-rule="evenodd" d="M15947.5 4772.6H10592.9V11116.7H15947.5V4772.6ZM4074.17 7071.8H9428.8V11116.7H4074.17V7071.8ZM523.822 7838.19H2444.5V11116.7H523.822V7838.19ZM26191.1 7071.8H31545.7V11116.7H26191.1V7071.8ZM25027.1 8774.9H19672.4V11116.7H25027.1V8774.9Z" fill="#515151"/>
</svg>
