<svg width="32768" height="7724" viewBox="0 0 32768 7724" fill="none" xmlns="http://www.w3.org/2000/svg">
<path fill-rule="evenodd" clip-rule="evenodd" d="M2562.78 0H1022.15V1287.31H0V7723.89H2192.43H3584.93H4681.14H5777.36H6221.77V2317.17H4681.14V4657.74H3584.93V1287.31H2562.78V0ZM32768 351.086H28279.4V7723.89H32768V351.086ZM8117.93 468.114H6577.3V7723.89H8117.93V468.114ZM8473.46 2598.03H10014.1V7723.89H8473.46V2598.03ZM19539.3 7723.89H17835.7H16324.7H14028.6H10814V2598.03H14028.6V1638.4H16324.7V468.114H17835.7V1638.4H19539.3V7723.89ZM24087.1 3183.18H21791V7723.89H24087.1V3183.18ZM24887.1 1895.86H27183.2V7723.89H24887.1V1895.86Z" fill="#D9D9D9"/>
</svg>
