<svg width="32768" height="9778" viewBox="0 0 32768 9778" fill="none" xmlns="http://www.w3.org/2000/svg">
<path fill-rule="evenodd" clip-rule="evenodd" d="M2562.78 0H1022.15V1629.51H0V9777.07H2192.43H3584.93H4681.14H5777.36H6221.77V2933.12H4681.14V5895.87H3584.93V1629.51H2562.78V0ZM32768 444.412H28279.4V9777.07H32768V444.412ZM8117.93 592.55H6577.3V9777.07H8117.93V592.55ZM8473.46 3288.65H10014.1V9777.07H8473.46V3288.65ZM19539.3 9777.07H17835.7H16324.7H14028.6H10814V3288.65H14028.6V2073.92H16324.7V592.55H17835.7V2073.92H19539.3V9777.07ZM24087.1 4029.34H21791V9777.07H24087.1V4029.34ZM24887.1 2399.83H27183.2V9777.07H24887.1V2399.83Z" fill="#D9D9D9"/>
</svg>
